# Mixer Wavefront OBJ Exporter v1.0

mtllib 1_my.mtl 

o Plane 
usemtl Material 
v -4.9167795 2.2335112 2.7928076
v -3.3370709 2.2335112 2.7928076
v -3.3370709 3.1654880 2.0487974
v -4.9167795 3.1654880 2.0487974
v -3.3370709 2.2335112 -3.0323415
v -4.9167795 2.2335112 -3.0323415
v -4.9167795 3.1654880 -2.2883313
v -3.3370709 3.1654880 -2.2883313
v -0.2770729 2.2335112 2.7928076
v -0.2770729 3.1654880 2.0487974
v -0.2770729 2.2335112 -3.0323415
v -0.2770729 3.1654880 -2.2883313
v -4.9167795 0.2560001 2.9712405
v -3.3370709 0.2560001 2.9712405
v -3.3370709 0.2560001 -3.2107744
v -4.9167795 0.2560001 -3.2107744
v -2.7650704 1.7239985 2.9712405
v -0.2770729 0.2560001 2.9712405
v -0.2770729 0.2560001 -3.2107744
v -2.7650704 1.7239985 -3.2107744
v -2.7650704 3.3890004 -1.8238982
v -2.7650704 3.3890004 1.5843643
v 4.3681068 0.2560001 2.9712405
v 4.3681068 1.7239985 2.9712405
v 0.2949276 1.7239985 2.9712405
v 0.2949276 1.7239985 -3.2107744
v 4.3681068 1.7239985 -3.2107744
v 4.3681068 0.2560001 -3.2107744
v 8.8826809 0.2560001 2.9712405
v 8.8826809 1.7239985 2.9712405
v 8.8826809 1.7239985 -3.2107744
v 8.8826809 0.2560001 -3.2107744
v 5.5975266 9.6468048 1.7850058
v 8.2252617 9.6468048 1.7850058
v 8.2252617 9.6468048 -2.0245397
v 5.5975266 9.6468048 -2.0245397
v 8.6227388 3.0611324 -2.1771898
v 8.6227388 3.0611324 1.9376559
v 9.0572042 2.2246311 2.5325902
v 9.0572042 2.2246311 -2.7721241
v 4.7655840 2.2246311 -2.7721241
v 4.7655840 2.2246311 2.5325902
v 5.2000494 3.0611324 1.9376559
v 5.2000494 3.0611324 -2.1771898
v 5.5975266 6.5339179 -2.3105400
v 8.2252617 6.5339179 -2.3105400
v 8.2252617 3.5617650 -2.3105400
v 5.5975266 3.5617650 -2.3105400
v 8.5112619 6.5339179 1.7850058
v 5.5975266 6.5339179 2.0710061
v 5.5975266 3.5617650 2.0710061
v 8.2252617 3.5617650 2.0710061
v 8.2252617 7.1059184 2.0710061
v -5.2787299 9.3608036 1.7850058
v -5.2787299 9.3608036 -2.0245397
v -5.2787299 7.1059184 -2.0245397
v -5.2787299 7.1059184 1.7850058
v 8.5112619 7.1059184 -2.0245397
v -1.6173491 6.8199182 1.7850058
v -1.6173491 6.8199182 -2.0245397
v 5.0255260 6.8199182 -2.0245397
v 5.0255260 6.8199182 1.7850058
v -1.6173491 9.6468048 -2.0245397
v -1.6173491 9.6468048 1.7850058
v 5.0255260 9.3608036 2.0710061
v 5.0255260 9.3608036 -2.3105400
v -4.4805212 5.7229161 1.1201131
v -4.4805212 5.7229161 -1.3596470
v -2.7015584 5.7229161 -1.3596470
v -2.7015584 5.7229161 1.1201131
v -2.1893497 9.3608036 -2.3105400
v -2.1893497 7.1059184 -2.3105400
v -2.1893497 7.1059184 2.0710061
v -2.1893497 9.3608036 2.0710061
v -4.8866725 6.5927744 -2.1728680
v -4.8866725 6.5927744 1.9333341
 
# 76 vertices 

vt 0.4701546 0.8151715 0.0000000
vt 0.4203496 0.8140864 0.0000000
vt 0.4214240 0.7770545 0.0000000
vt 0.4712290 0.7781398 0.0000000
vt 0.6286805 0.2832310 0.0000000
vt 0.5789168 0.2843772 0.0000000
vt 0.5774794 0.2483140 0.0000000
vt 0.6272432 0.2471679 0.0000000
vt 0.3238742 0.8119842 0.0000000
vt 0.3249485 0.7749524 0.0000000
vt 0.7250760 0.2810109 0.0000000
vt 0.7236386 0.2449477 0.0000000
vt 0.4698970 0.8727446 0.0000000
vt 0.4200920 0.8716595 0.0000000
vt 0.6290252 0.3431857 0.0000000
vt 0.5792615 0.3443318 0.0000000
vt 0.9510912 0.0511477 0.0000000
vt 0.9691434 0.0953185 0.0000000
vt 0.8725708 0.0950488 0.0000000
vt 0.8726223 0.0338963 0.0000000
vt 0.7254207 0.3409655 0.0000000
vt 0.6470442 0.2998306 0.0000000
vt 0.9421284 0.6913332 0.0000000
vt 0.7685863 0.6909447 0.0000000
vt 0.7684771 0.7729111 0.0000000
vt 0.9420193 0.7732995 0.0000000
vt 0.9423397 0.5325590 0.0000000
vt 0.7687976 0.5321706 0.0000000
vt 0.7872092 0.6606338 0.0000000
vt 0.9235845 0.6609390 0.0000000
vt 0.6762446 0.9307318 0.0000000
vt 0.4923971 0.9307235 0.0000000
vt 0.5158787 0.9038856 0.0000000
vt 0.6527629 0.9038917 0.0000000
vt 0.7259704 0.0946394 0.0000000
vt 0.7259704 0.0505191 0.0000000
vt 0.8545187 0.0508780 0.0000000
vt 0.3306274 0.6766775 0.0000000
vt 0.4591142 0.6783317 0.0000000
vt 0.4591142 0.7208140 0.0000000
vt 0.3125839 0.7189274 0.0000000
vt 0.3245260 0.6263319 0.0000000
vt 0.3245054 0.5260527 0.0000000
vt 0.5196160 0.5260283 0.0000000
vt 0.5196366 0.6263076 0.0000000
vt 0.5834919 0.0942415 0.0000000
vt 0.5834919 0.0501212 0.0000000
vt 0.6015247 0.6801653 0.0000000
vt 0.6015247 0.7226475 0.0000000
vt 0.0836128 0.7216693 0.0000000
vt 0.0006788 0.7217011 0.0000000
vt 0.0006312 0.6053709 0.0000000
vt 0.0835652 0.6053392 0.0000000
vt 0.3481263 0.4411697 0.0000000
vt 0.4695500 0.4491403 0.0000000
vt 0.4822418 0.4785135 0.0000000
vt 0.3257066 0.4682381 0.0000000
vt 0.5057697 0.5063578 0.0000000
vt 0.3383476 0.5063788 0.0000000
vt 0.3571222 0.4791610 0.0000000
vt 0.4869908 0.4791448 0.0000000
vt 0.4720989 0.6584834 0.0000000
vt 0.4864094 0.6269631 0.0000000
vt 0.5943767 0.6283532 0.0000000
vt 0.5919940 0.0000000 0.0000000
vt 0.7000130 0.0003016 0.0000000
vt 0.7135528 0.0312120 0.0000000
vt 0.2283422 0.1009955 0.0000000
vt 0.3110564 0.1013982 0.0000000
vt 0.3110564 0.1949932 0.0000000
vt 0.2283422 0.1945906 0.0000000
vt 0.3486412 0.3309305 0.0000000
vt 0.4662935 0.3403239 0.0000000
vt 0.0049282 0.3105315 0.0000000
vt 0.0965651 0.3095358 0.0000000
vt 0.0965651 0.4030093 0.0000000
vt 0.0136709 0.4032247 0.0000000
vt 0.7428176 0.7332646 0.0000000
vt 0.6129490 0.7332575 0.0000000
vt 0.6087388 0.6428686 0.0000000
vt 0.7470248 0.6428760 0.0000000
vt 0.0139504 0.2126085 0.0000000
vt 0.0968446 0.2123931 0.0000000
vt 0.0136709 0.2917619 0.0000000
vt 0.0046828 0.7339394 0.0000000
vt 0.1249158 0.7339451 0.0000000
vt 0.1249158 0.7984694 0.0000000
vt 0.0046828 0.7984638 0.0000000
vt 0.3538789 0.3151641 0.0000000
vt 0.3570807 0.2347204 0.0000000
vt 0.4694954 0.2420996 0.0000000
vt 0.2289989 0.0023679 0.0000000
vt 0.3117131 0.0027705 0.0000000
vt 0.5577644 0.1345962 0.0000000
vt 0.4719073 0.2099125 0.0000000
vt 0.3251366 0.0759475 0.0000000
vt 0.4109937 0.0006312 0.0000000
vt 0.3112739 0.6052520 0.0000000
vt 0.3113215 0.7215821 0.0000000
vt 0.3244441 0.2118017 0.0000000
vt 0.3244441 0.3007066 0.0000000
vt 0.1148888 0.3012511 0.0000000
vt 0.1146094 0.2205840 0.0000000
vt 0.2103372 0.0118874 0.0000000
vt 0.2109939 0.0913008 0.0000000
vt 0.0018937 0.0902830 0.0000000
vt 0.0018937 0.0012624 0.0000000
vt 0.5598413 0.7949471 0.0000000
vt 0.5552060 0.8652003 0.0000000
vt 0.4991587 0.8622102 0.0000000
vt 0.5037940 0.7919569 0.0000000
vt 0.8448839 0.9636257 0.0000000
vt 0.8197744 0.8534952 0.0000000
vt 0.9327830 0.8277294 0.0000000
vt 0.9578926 0.9378599 0.0000000
vt 0.3119527 0.9539968 0.0000000
vt 0.3119527 0.8845295 0.0000000
vt 0.4081885 0.8806006 0.0000000
vt 0.4081885 0.9500681 0.0000000
vt 0.9523689 0.2966527 0.0000000
vt 0.9523686 0.1231637 0.0000000
vt 0.7573336 0.1249136 0.0000000
vt 0.7573344 0.2984026 0.0000000
vt 0.5667345 0.1850633 0.0000000
vt 0.5108473 0.2340892 0.0000000
vt 0.3948944 0.9994929 0.0000000
vt 0.3389936 1.0006312 0.0000000
vt 0.3238354 0.9685423 0.0000000
vt 0.8110207 0.4069283 0.0000000
vt 0.9240624 0.4064933 0.0000000
vt 0.7815850 0.3372714 0.0000000
vt 0.1039284 0.8486707 0.0000000
vt 0.0256647 0.8486671 0.0000000
vt 0.5500123 0.4785135 0.0000000
vt 0.6868964 0.4785135 0.0000000
vt 0.7103781 0.5079277 0.0000000
vt 0.5265305 0.5079277 0.0000000
vt 0.7160096 0.5703399 0.0000000
vt 0.5208990 0.5703399 0.0000000
vt 0.4270051 0.8733758 0.0000000
vt 0.4270051 0.9604651 0.0000000
vt 0.4020580 0.8305141 0.0000000
vt 0.1295959 0.8183732 0.0000000
vt 0.1092342 0.4190744 0.0000000
vt 0.0012624 0.4193549 0.0000000
vt 0.7434398 0.2976105 0.0000000
vt 0.4779349 0.3216370 0.0000000
vt 0.4779349 0.4318070 0.0000000
vt 0.9899917 0.3195130 0.0000000
vt 0.9899916 0.1020148 0.0000000
vt 0.2161369 0.2100148 0.0000000
vt 0.6818742 0.9527919 0.0000000
vt 0.4867637 0.9527831 0.0000000
vt 0.3238742 0.2105393 0.0000000
vt 0.9421228 0.9528213 0.0000000
vt 0.0000000 0.8183672 0.0000000
vt 0.1016692 0.7326771 0.0000000
vt 0.6074763 0.6602265 0.0000000
vt 0.4540185 0.8932772 0.0000000
vt 0.3244441 0.8932772 0.0000000
vt 0.3340774 0.8733760 0.0000000
vt 0.6177673 0.6263319 0.0000000
vt 0.7380005 0.6263384 0.0000000
vt 0.3207157 0.0828286 0.0000000
vt 0.5781106 0.0308337 0.0000000
 
# 165 texture coordinates 

vn 0.0000000 0.6238914 0.7815111
vn 0.0000000 0.6238914 -0.7815111
vn 0.0000000 0.0898660 0.9959539
vn 0.0000000 0.0898660 -0.9959539
vn 0.0277884 0.0470964 0.9985037
vn 0.0000000 0.0000000 1.0000000
vn 0.0529494 0.0897399 0.9945568
vn 0.0277884 0.0470964 -0.9985037
vn 0.0776652 -0.0302620 -0.9965202
vn 0.0000000 1.0000000 0.0000000
vn 0.0894759 0.9959891 0.0000000
vn 0.0894759 0.9959890 0.0000000
vn 1.0000000 0.0000000 0.0000000
vn 0.0000000 0.0000000 0.9999999
vn 0.0000000 0.0000000 -1.0000000
vn 0.0000000 0.0000000 -0.9999999
vn 0.0000000 0.9999999 0.0000000
vn 0.8874404 0.4609224 0.0000000
vn 0.8874405 0.4609224 0.0000000
vn -0.8874404 0.4609224 0.0000000
vn -0.8874405 0.4609224 0.0000000
vn -0.8874406 0.4609224 0.0000000
vn -0.0067094 0.5999289 -0.8000250
vn -0.0153037 0.5847796 -0.8110478
vn -0.0067094 0.5999290 -0.8000252
vn 0.0000000 0.6115752 -0.7911863
vn -0.0067094 0.5999290 0.8000251
vn 0.0000000 0.5795813 0.8149144
vn -0.0101814 0.6103038 0.7921020
vn 0.9968277 0.0716152 -0.0347234
vn 0.9971526 0.0289479 -0.0696332
vn 0.9935136 0.1137125 0.0000000
vn 0.0514889 0.0455223 0.9976356
vn 0.0976864 0.0000000 0.9952172
vn 0.0514889 0.0455223 0.9976355
vn 0.0000000 0.0957842 0.9954022
vn -0.9935137 0.1137125 0.0000000
vn -0.0109548 0.1006516 0.9948614
vn 0.0000000 0.0914909 0.9958059
vn -0.0109548 0.1006516 0.9948615
vn -0.0243407 0.1118198 0.9934304
vn -1.0000000 0.0000000 0.0000000
vn 0.9948927 0.1006548 0.0075566
vn 0.9935847 0.1118372 0.0167923
vn 0.9958060 0.0914909 0.0000000
vn 0.0000000 0.0914909 -0.9958059
vn 0.0000000 -1.0000000 0.0000000
vn -0.0226359 -0.0531919 0.9983277
vn -0.0226359 -0.0531919 0.9983278
vn -0.0475454 -0.1117264 0.9926010
vn -0.0226359 -0.0531919 -0.9983277
vn 0.0000000 -0.1118529 -0.9937247
vn -0.0226359 -0.0531919 -0.9983278
vn -0.0430138 0.0000000 -0.9990745
vn -0.0778755 0.9969631 0.0000000
vn -0.0921811 0.0000000 -0.9957423
vn -0.0921811 0.0000000 0.9957423
vn 0.7112417 -0.7029475 0.0000000
vn 0.0465991 -0.6172155 -0.7854131
vn 0.0000000 -0.6829253 -0.7304881
vn 0.0694895 -0.5825385 -0.8098272
vn 0.0465991 -0.6172154 0.7854131
vn 0.0000000 -0.5665607 0.8240200
vn 0.0870810 -0.6583322 0.7476735
vn -0.8660980 -0.4998742 0.0000000
vn -0.9999999 0.0000000 0.0000000
vn 0.4472136 0.0000000 -0.8944272
vn 0.4472136 0.0000000 -0.8944273
vn 0.0000000 0.6590124 -0.7521321
vn -0.2247350 0.0875672 0.9704773
vn -0.8057258 -0.5590620 -0.1955902
vn 0.0000000 -0.2573889 0.9663079
vn 0.0000000 -0.2573889 0.9663078
vn 0.1055472 -0.5896433 -0.8007376
vn -0.2247350 0.0875672 -0.9704773
vn 0.7727363 0.0709961 0.6307440
vn -0.0900771 0.2124359 -0.9730145
vn -0.3639561 0.9314161 0.0000000
vn 0.3767052 0.0527442 0.9248304
vn 0.4119989 0.0833651 0.9073628
vn -0.4837915 -0.0978918 0.8696913
vn -0.0900771 0.2124359 0.9730145
vn -0.7831748 0.6218015 0.0000000
vn -0.7831749 0.6218016 0.0000000
vn 0.4472136 0.0000000 0.8944272
vn 0.4472136 0.0000000 0.8944273
vn -0.3180685 0.0000000 -0.9480677
vn 0.6651421 0.7467167 0.0000000
vn 0.6651422 0.7467168 0.0000000
vn 0.0000000 -0.2573889 -0.9663079
vn 0.0000000 -0.2573889 -0.9663078
vn -0.0595940 0.7629238 0.6437358
vn 0.4837915 -0.0978918 -0.8696913
vn -0.4119989 0.0833651 -0.9073628
vn 0.0000000 0.3305213 0.9437985
vn 0.0000000 0.9010801 0.4336526
vn -0.0595940 0.7629238 -0.6437358
vn 0.0891235 -0.4094278 0.9079791
vn 0.0000000 0.7071068 -0.7071068
vn -0.8057258 -0.5590620 0.1955902
vn 0.3180685 0.0000000 -0.9480677
vn -0.3180685 0.0000000 0.9480677
vn 0.0000000 0.7071068 0.7071068
vn 0.0000000 0.3305213 -0.9437986
vn 0.1461128 0.6226363 -0.7687491
vn 0.9049200 -0.4208638 -0.0631924
vn -0.4472136 -0.8944272 0.0000000
vn -0.4472136 -0.8944273 0.0000000
vn -0.4472136 -0.8944271 0.0000000
vn 0.1055472 -0.5896433 0.8007376
vn 0.6307440 0.0709961 -0.7727363
vn 0.1461128 0.6226363 0.7687491
vn 0.0000000 0.9010801 -0.4336526
vn 0.0000000 0.6590124 0.7521321
 
# 114 normals 

f 1/1/1 2/2/1 3/3/1 4/4/1 
f 5/5/2 6/6/2 7/7/2 8/8/2 
f 2/2/1 9/9/1 10/10/1 3/3/1 
f 11/11/2 5/5/2 8/8/2 12/12/2 
f 1/1/3 13/13/3 14/14/3 2/2/3 
f 5/5/4 15/15/4 16/16/4 6/6/4 
f 17/17/5 14/18/6 18/19/5 9/20/7 
f 11/11/8 19/21/4 15/15/8 20/22/9 
f 3/23/10 8/24/10 7/25/10 4/26/10 
f 10/27/11 12/28/12 21/29/12 22/30/12 
f 9/31/13 11/32/13 12/33/13 10/34/13 
f 18/19/6 23/35/14 24/36/6 25/37/14 
f 26/38/15 27/39/16 28/40/15 19/41/16 
f 25/42/10 24/43/10 27/44/10 26/45/10 
f 23/35/6 29/46/6 30/47/6 24/36/6 
f 27/39/15 31/48/15 32/49/15 28/40/15 
f 33/50/17 34/51/17 35/52/10 36/53/17 
f 37/54/18 38/55/19 39/56/18 40/57/19 
f 41/58/20 42/59/21 43/60/20 44/61/22 
f 31/48/23 41/62/24 44/63/25 37/64/26 
f 38/65/27 43/66/28 42/67/27 30/47/29 
f 45/68/15 46/69/15 47/70/15 48/71/15 
f 46/72/30 49/73/31 38/55/30 37/54/32 
f 49/74/33 50/75/34 51/76/35 52/77/36 
f 44/78/37 43/79/37 50/80/37 45/81/37 
f 34/82/38 33/83/39 50/75/40 53/84/41 
f 54/85/42 55/86/42 56/87/42 57/88/42 
f 49/73/43 58/89/44 35/90/43 34/91/45 
f 46/69/46 45/68/46 36/92/46 35/93/46 
f 59/94/47 60/95/47 61/96/47 62/97/47 
f 33/50/17 36/53/17 63/98/10 64/99/17 
f 64/100/48 59/101/6 62/102/49 65/103/50 
f 66/104/51 61/105/52 60/106/53 63/107/54 
f 67/108/47 68/109/47 69/110/47 70/111/47 
f 55/112/55 54/113/55 64/114/55 63/115/55 
f 56/116/56 55/117/56 71/118/56 72/119/56 
f 73/120/57 74/121/57 54/122/57 57/123/57 
f 70/124/58 69/125/58 60/95/58 59/94/58 
f 69/126/59 68/127/60 75/128/59 72/119/61 
f 67/129/62 70/130/63 73/120/62 76/131/64 
f 57/88/65 56/87/65 68/132/65 67/133/65 
f 4/134/42 7/135/42 6/136/42 1/137/42 
f 1/137/66 6/136/42 16/138/42 13/139/66 
f 63/140/67 60/141/67 72/119/68 71/118/67 
f 31/48/69 27/39/69 41/62/69 
f 2/2/70 14/14/70 17/142/70 
f 68/132/71 56/87/71 75/143/71 
f 52/77/72 51/76/73 43/144/72 38/145/73 
f 69/126/74 72/119/74 60/141/74 
f 26/146/75 19/21/75 11/11/75 
f 34/91/76 53/147/76 49/73/76 
f 72/119/77 75/128/77 56/116/77 
f 22/30/78 21/29/78 8/24/78 3/23/78 
f 38/55/79 49/73/79 52/148/79 
f 50/75/14 33/83/80 65/103/6 62/102/81 
f 73/120/82 57/123/82 76/131/82 
f 27/44/83 24/43/84 42/59/84 41/58/84 
f 74/121/85 73/120/85 59/149/86 64/150/85 
f 44/151/87 45/68/87 48/71/87 
f 25/152/88 26/153/88 11/32/89 9/31/89 
f 48/71/90 47/70/91 37/154/90 44/151/91 
f 54/122/92 74/121/92 64/150/92 
f 61/105/16 66/104/93 36/92/15 45/68/94 
f 17/142/95 9/9/95 2/2/95 
f 3/23/96 10/27/96 22/30/96 
f 20/22/75 15/15/75 5/5/75 
f 55/112/97 63/115/97 71/155/97 
f 53/84/98 50/75/98 49/74/98 
f 66/104/99 63/107/99 36/92/99 
f 67/133/100 76/156/100 57/88/100 
f 9/20/70 18/19/70 25/37/70 
f 47/70/101 46/69/101 37/154/101 
f 51/76/102 50/75/102 43/144/102 
f 33/50/103 64/99/103 65/157/103 
f 5/5/104 11/11/104 20/22/104 
f 31/48/105 37/64/105 40/158/105 
f 49/159/106 46/160/106 58/161/106 
f 62/162/107 61/163/107 45/81/108 50/80/109 
f 70/130/110 59/149/110 73/120/110 
f 35/93/111 58/164/111 46/69/111 
f 39/165/112 38/65/112 30/47/112 
f 21/29/113 12/28/113 8/24/113 
f 30/47/114 42/67/114 24/36/114 
 
# 83 faces 

